<svg id="Layer_2" viewBox="0 0 107.9 32.11" class="hidden h-6 w-auto fill-slate-700 lg:block dark:fill-indigo-100"><g><path d="M6.53,6.38h3.22v6.43h3.22v6.38h3.07V0h3.31V32.11h-6.53v-6.38h-3.22v-6.38h-3.17v-6.43H3.31v19.2H0V0H6.53V6.38Z"></path> <path d="M27.7,9.6h3.23V0h6.56V9.6h3.17v9.6h3.22v12.91h-6.53v-9.6h-9.5v9.6h-3.31v-12.91h3.17V9.6Zm3.36,.14v9.46h3.07V9.74h-3.07Z"></path> <path d="M65.18,6.53h-3.31V3.31h-6.29V12.82h6.43v3.17h3.17v12.96h-3.17v3.17h-9.74v-3.17h-3.22v-3.31h3.36v3.17h6.24v-9.46h-6.38v-3.22h-3.22V3.22h3.22V0h9.74V3.22h3.17v3.31Z"></path> <path d="M67.25,0h19.3V3.31h-6.38v28.8h-6.53V3.31h-6.38V0Z"></path> <path d="M107.9,0V9.74h-3.22v6.38h-3.17v15.98h-6.53v-15.98h-3.22v-6.38h-3.22V0h6.53V9.6h3.22v6.38h3.07V0h6.53Z"></path></g></svg>